<mxfile host="app.diagrams.net" modified="2024-05-15T03:28:33.122Z" agent="Mozilla/5.0 (Macintosh; Intel Mac OS X 10_15_7) AppleWebKit/537.36 (KHTML, like Gecko) Chrome/124.0.0.0 Safari/537.36 Edg/124.0.0.0" etag="OrOcj7PDBwWIgXozYQDe" version="24.4.0" type="github">
  <diagram name="第 1 页" id="-0V_eJkPZJy6pVbtaWNm">
    <mxGraphModel dx="930" dy="663" grid="1" gridSize="10" guides="1" tooltips="1" connect="1" arrows="1" fold="1" page="1" pageScale="1" pageWidth="1169" pageHeight="827" math="0" shadow="0">
      <root>
        <mxCell id="0" />
        <mxCell id="1" parent="0" />
        <mxCell id="TuPurhBjzqA0GIfGPKPf-1" value="" style="rounded=0;whiteSpace=wrap;html=1;fillColor=#dae8fc;strokeColor=none;" vertex="1" parent="1">
          <mxGeometry x="40" y="40" width="320" height="480" as="geometry" />
        </mxCell>
        <mxCell id="TuPurhBjzqA0GIfGPKPf-2" value="" style="rounded=0;whiteSpace=wrap;html=1;fillColor=#ffe6cc;strokeColor=none;" vertex="1" parent="1">
          <mxGeometry x="440" y="40" width="320" height="480" as="geometry" />
        </mxCell>
      </root>
    </mxGraphModel>
  </diagram>
</mxfile>
